<?xml version="1.0" encoding="UTF-8"?>
<!DOCTYPE svg PUBLIC "-//W3C//DTD SVG 1.1//EN" "http://www.w3.org/Graphics/SVG/1.1/DTD/svg11.dtd">
<svg xmlns="http://www.w3.org/2000/svg" version="1.1" width="512px" height="512px" style="shape-rendering:geometricPrecision; text-rendering:geometricPrecision; image-rendering:optimizeQuality; fill-rule:evenodd; clip-rule:evenodd" xmlns:xlink="http://www.w3.org/1999/xlink">
<g><path style="opacity:0.978" fill="#010101" d="M 511.5,403.5 C 511.5,406.5 511.5,409.5 511.5,412.5C 510.023,414.807 508.023,416.64 505.5,418C 500.511,418.499 495.511,418.666 490.5,418.5C 490.666,427.839 490.5,437.173 490,446.5C 488.258,463.246 479.424,474.412 463.5,480C 394.21,481.16 324.877,481.66 255.5,481.5C 186.123,481.66 116.79,481.16 47.5,480C 31.5757,474.412 22.7423,463.246 21,446.5C 20.5002,437.173 20.3335,427.839 20.5,418.5C 15.4889,418.666 10.4889,418.499 5.5,418C 2.97739,416.64 0.977392,414.807 -0.5,412.5C -0.5,409.5 -0.5,406.5 -0.5,403.5C 1.04602,400.8 3.37935,398.967 6.5,398C 19.1667,397.667 31.8333,397.333 44.5,397C 24.0724,385.916 10.239,369.416 3,347.5C -0.259091,326.58 6.90758,310.414 24.5,299C 28.6457,297.063 32.979,295.729 37.5,295C 47.1667,294.667 56.8333,294.333 66.5,294C 68.8477,293.654 70.6811,292.487 72,290.5C 73.7248,287.326 75.0581,283.993 76,280.5C 75.3335,230.293 99.5002,200.126 148.5,190C 179.819,184.99 207.653,192.49 232,212.5C 229.991,196.785 227.491,181.119 224.5,165.5C 224.523,158.43 226.189,151.763 229.5,145.5C 225.293,133.544 221.293,121.544 217.5,109.5C 195.162,109.327 182.829,98.1605 180.5,76C 182.265,55.7352 193.265,44.5686 213.5,42.5C 217.188,42.9475 220.854,43.1141 224.5,43C 233.702,31.3734 245.702,27.0401 260.5,30C 280.413,37.3149 288.246,51.4815 284,72.5C 281.463,80.0463 276.963,86.213 270.5,91C 274.927,102.778 279.26,114.612 283.5,126.5C 290.273,129.103 296.107,133.103 301,138.5C 309.886,157.948 320.553,176.282 333,193.5C 344.405,204.909 356.405,215.576 369,225.5C 371.111,211.721 374.778,198.387 380,185.5C 384.604,178.435 390.771,173.102 398.5,169.5C 393.912,159.631 394.745,150.298 401,141.5C 407.122,135.68 414.455,133.013 423,133.5C 443.027,134.04 454.86,144.04 458.5,163.5C 458.449,167.821 457.282,171.821 455,175.5C 450.958,179.71 446.792,183.71 442.5,187.5C 444.974,192.536 446.308,197.869 446.5,203.5C 444.005,214.815 441.505,226.148 439,237.5C 434.716,274.313 445.049,306.313 470,333.5C 475.917,341.164 478.417,349.831 477.5,359.5C 500.702,362.526 508.368,375.026 500.5,397C 505.183,397.667 508.85,399.833 511.5,403.5 Z M 241.5,368.5 C 247.791,379.635 256.124,389.135 266.5,397C 246.833,397.667 227.167,397.667 207.5,397C 220.57,389.623 231.903,380.123 241.5,368.5 Z M 404.5,368.5 C 405.239,368.369 405.906,368.536 406.5,369C 412.325,378.493 420.325,385.493 430.5,390C 434.773,391.03 439.106,391.697 443.5,392C 444.167,393.667 444.833,395.333 445.5,397C 424.833,397.667 404.167,397.667 383.5,397C 392.672,389.01 399.672,379.51 404.5,368.5 Z"/></g>
<g><path style="opacity:1" fill="#ccedf7" d="M 248.5,49.5 C 263.014,50.1678 267.514,57.1678 262,70.5C 257.821,73.2567 253.821,76.2567 250,79.5C 248.978,81.7017 248.478,84.0351 248.5,86.5C 252.631,100.893 256.964,115.226 261.5,129.5C 257.332,130.722 253.165,132.056 249,133.5C 248.5,133.167 248,132.833 247.5,132.5C 243.235,120.871 239.068,109.205 235,97.5C 233.474,92.6405 230.307,89.4738 225.5,88C 220.167,88 214.833,88 209.5,88C 202.262,84.3454 199.762,78.5121 202,70.5C 204.673,65.8321 208.673,63.4988 214,63.5C 222.068,65.7531 229.568,64.5864 236.5,60C 240.101,55.8893 244.101,52.3893 248.5,49.5 Z"/></g>
<g><path style="opacity:1" fill="#fdc97b" d="M 271.5,146.5 C 277.544,146.272 282.377,148.605 286,153.5C 298.671,186.481 319.171,213.314 347.5,234C 367.559,251.386 382.059,272.553 391,297.5C 400.163,329.98 392.997,358.147 369.5,382C 343.349,401.867 316.016,403.534 287.5,387C 273.887,377.95 263.387,366.117 256,351.5C 255.333,350.167 255.333,348.833 256,347.5C 274.566,311.435 273.899,275.769 254,240.5C 253.838,226.802 253.171,213.135 252,199.5C 249.494,187.986 246.994,176.486 244.5,165C 244.744,161.513 246.077,158.513 248.5,156C 256.031,152.328 263.698,149.161 271.5,146.5 Z"/></g>
<g><path style="opacity:1" fill="#cb4689" d="M 417.5,154.5 C 424.528,153.351 430.695,155.018 436,159.5C 437.187,161.044 437.52,162.711 437,164.5C 433.642,167.358 430.142,170.025 426.5,172.5C 424.249,171.305 421.915,170.305 419.5,169.5C 417.758,164.502 417.091,159.502 417.5,154.5 Z"/></g>
<g><path style="opacity:1" fill="#fb6775" d="M 406.5,188.5 C 420.495,187.993 426.662,194.66 425,208.5C 409.449,260.753 419.449,307.419 455,348.5C 459.779,359.779 456.279,367.279 444.5,371C 440.947,371.598 437.614,370.931 434.5,369C 426.528,361.367 419.695,352.867 414,343.5C 417.695,315 412.362,288.333 398,263.5C 394.915,258.328 391.581,253.328 388,248.5C 388.086,230.231 391.42,212.565 398,195.5C 400.441,192.546 403.275,190.213 406.5,188.5 Z"/></g>
<g><path style="opacity:1" fill="#fb6775" d="M 152.5,209.5 C 199.536,206.388 230.703,227.055 246,271.5C 254.637,313.935 241.471,347.769 206.5,373C 158.353,403.804 108.687,406.47 57.5,381C 46.1818,375.02 36.6818,366.853 29,356.5C 20.343,342.301 21.843,329.468 33.5,318C 35.087,317.138 36.7536,316.471 38.5,316C 47.5,315.667 56.5,315.333 65.5,315C 82.4729,312.363 92.6395,302.529 96,285.5C 93.5291,243.86 112.362,218.527 152.5,209.5 Z"/></g>
<g><path style="opacity:1" fill="#040202" d="M 161.5,221.5 C 201.888,222.044 226.721,242.044 236,281.5C 238.31,329.199 216.81,360.699 171.5,376C 152.571,381.504 133.571,381.838 114.5,377C 91.0913,369.612 80.5913,353.778 83,329.5C 84.4728,325.221 86.4728,321.221 89,317.5C 95.3021,312.199 101.302,306.532 107,300.5C 112.657,289.546 114.991,277.88 114,265.5C 120.514,240.677 136.347,226.01 161.5,221.5 Z"/></g>
<g><path style="opacity:1" fill="#e8a7ad" d="M 159.5,242.5 C 189.811,240.969 208.644,254.969 216,284.5C 218.069,317.519 203.902,340.686 173.5,354C 155.484,361.334 137.151,362.334 118.5,357C 111.457,354.621 106.29,350.121 103,343.5C 101.56,337.805 102.726,332.805 106.5,328.5C 126.707,313.742 135.873,293.742 134,268.5C 138.008,255.326 146.508,246.659 159.5,242.5 Z"/></g>
<g><path style="opacity:1" fill="#030202" d="M 165.5,256.5 C 182.083,255.529 192.916,262.863 198,278.5C 198.972,301.774 187.805,312.608 164.5,311C 145.287,302.702 139.787,288.869 148,269.5C 152.38,263.075 158.213,258.741 165.5,256.5 Z"/></g>
<g><path style="opacity:1" fill="#040301" d="M 344.5,266.5 C 347.794,266.259 350.794,267.092 353.5,269C 378.096,294.128 382.929,322.628 368,354.5C 362.795,360.579 357.295,360.912 351.5,355.5C 350.149,353.546 349.482,351.379 349.5,349C 352.264,341.704 354.431,334.204 356,326.5C 357.177,315.874 355.177,305.874 350,296.5C 346,291.167 342,285.833 338,280.5C 337.333,277.833 337.333,275.167 338,272.5C 340.063,270.266 342.229,268.266 344.5,266.5 Z"/></g>
<g><path style="opacity:1" fill="#c6e7f1" d="M 168.5,276.5 C 175.657,276.155 178.824,279.488 178,286.5C 176.053,290.557 172.886,292.057 168.5,291C 164.788,288.487 163.622,284.987 165,280.5C 166.376,279.295 167.542,277.962 168.5,276.5 Z"/></g>
<g><path style="opacity:1" fill="#060402" d="M 335.5,364.5 C 345.44,363.274 349.94,367.607 349,377.5C 346.081,383.025 341.581,384.858 335.5,383C 327.535,376.755 327.535,370.588 335.5,364.5 Z"/></g>
<g><path style="opacity:1" fill="#cb4689" d="M 468.5,378.5 C 472.127,379.429 475.793,380.263 479.5,381C 481.286,381.196 482.619,382.029 483.5,383.5C 481.255,392.413 475.589,397.413 466.5,398.5C 465.582,393.994 464.582,389.494 463.5,385C 464.985,382.683 466.652,380.516 468.5,378.5 Z"/></g>
<g><path style="opacity:1" fill="#8fdbf2" d="M 41.5,418.5 C 184.167,418.5 326.833,418.5 469.5,418.5C 469.666,428.506 469.5,438.506 469,448.5C 466.737,455.097 462.237,459.264 455.5,461C 322.167,461.667 188.833,461.667 55.5,461C 48.7634,459.264 44.2634,455.097 42,448.5C 41.5002,438.506 41.3335,428.506 41.5,418.5 Z"/></g>
</svg>
