<?xml version="1.0" encoding="UTF-8"?>
<!DOCTYPE svg PUBLIC "-//W3C//DTD SVG 1.1//EN" "http://www.w3.org/Graphics/SVG/1.1/DTD/svg11.dtd">
<svg xmlns="http://www.w3.org/2000/svg" version="1.1" width="428px" height="339px" style="shape-rendering:geometricPrecision; text-rendering:geometricPrecision; image-rendering:optimizeQuality; fill-rule:evenodd; clip-rule:evenodd" xmlns:xlink="http://www.w3.org/1999/xlink">
<g><path style="opacity:1" fill="#fefefe" d="M -0.5,-0.5 C 142.167,-0.5 284.833,-0.5 427.5,-0.5C 427.5,112.5 427.5,225.5 427.5,338.5C 284.833,338.5 142.167,338.5 -0.5,338.5C -0.5,225.5 -0.5,112.5 -0.5,-0.5 Z"/></g>
<g><path style="opacity:1" fill="#ef3c44" d="M 415.5,38.5 C 414.542,38.9528 413.708,39.6195 413,40.5C 412.181,45.1415 410.514,49.4748 408,53.5C 404.761,56.9829 401.761,60.6496 399,64.5C 389.233,72.6095 381.233,82.2762 375,93.5C 363.833,104.667 352.667,115.833 341.5,127C 334.043,131.196 327.71,136.529 322.5,143C 311.816,147.342 302.482,153.675 294.5,162C 287.036,165.779 280.369,170.779 274.5,177C 247.282,198.884 218.949,219.218 189.5,238C 140.668,268.402 91.6678,298.235 42.5,327.5C 38.7267,327.737 35.0601,327.237 31.5,326C 28.6755,323.387 25.3422,321.721 21.5,321C 20.035,319.226 18.7017,317.392 17.5,315.5C 18.355,314.469 19.0217,313.303 19.5,312C 11.8897,297.051 13.0563,282.885 23,269.5C 36.9372,253.441 52.1038,238.607 68.5,225C 117.044,186.451 166.71,149.451 217.5,114C 229.617,101.785 243.284,91.7852 258.5,84C 259.104,81.5325 260.438,79.5325 262.5,78C 270.874,74.4834 278.207,69.4834 284.5,63C 293.451,59.029 301.118,53.3623 307.5,46C 317.819,38.1728 328.486,30.8395 339.5,24C 340.337,22.9887 340.67,21.8221 340.5,20.5C 353.656,11.4851 368.323,7.65175 384.5,9C 396.48,12.3241 406.313,18.8241 414,28.5C 415.043,31.7568 415.543,35.0901 415.5,38.5 Z"/></g>
<g><path style="opacity:1" fill="#f2646b" d="M 340.5,20.5 C 340.67,21.8221 340.337,22.9887 339.5,24C 328.486,30.8395 317.819,38.1728 307.5,46C 301.118,53.3623 293.451,59.029 284.5,63C 278.207,69.4834 270.874,74.4834 262.5,78C 260.438,79.5325 259.104,81.5325 258.5,84C 243.284,91.7852 229.617,101.785 217.5,114C 166.71,149.451 117.044,186.451 68.5,225C 52.1038,238.607 36.9372,253.441 23,269.5C 13.0563,282.885 11.8897,297.051 19.5,312C 19.0217,313.303 18.355,314.469 17.5,315.5C 15.8267,314.657 14.66,313.324 14,311.5C 6.80427,295.515 8.47094,280.515 19,266.5C 25.7632,257.733 33.2632,249.567 41.5,242C 59.2079,226.623 77.2079,211.623 95.5,197C 171.144,140.179 247.144,83.8457 323.5,28C 328.934,24.9494 334.6,22.4494 340.5,20.5 Z"/></g>
<g><path style="opacity:1" fill="#fff7f7" d="M 389.5,29.5 C 392.777,29.2161 395.943,29.5495 399,30.5C 401,41.5 397,44.5 387,39.5C 386.333,36.8333 386.333,34.1667 387,31.5C 387.995,30.9341 388.828,30.2674 389.5,29.5 Z"/></g>
<g><path style="opacity:1" fill="#880015" d="M 415.5,38.5 C 415.464,43.9301 414.797,49.2634 413.5,54.5C 411.284,55.2026 409.451,56.5359 408,58.5C 373.044,100.8 335.877,141.3 296.5,180C 264.699,208.806 230.366,234.139 193.5,256C 151.257,281.096 108.924,305.929 66.5,330.5C 58.3724,330.117 50.3724,329.117 42.5,327.5C 91.6678,298.235 140.668,268.402 189.5,238C 218.949,219.218 247.282,198.884 274.5,177C 280.369,170.779 287.036,165.779 294.5,162C 302.482,153.675 311.816,147.342 322.5,143C 327.71,136.529 334.043,131.196 341.5,127C 352.667,115.833 363.833,104.667 375,93.5C 381.233,82.2762 389.233,72.6095 399,64.5C 401.761,60.6496 404.761,56.9829 408,53.5C 410.514,49.4748 412.181,45.1415 413,40.5C 413.708,39.6195 414.542,38.9528 415.5,38.5 Z"/></g>
<g><path style="opacity:1" fill="#512b2b" d="M 326.5,54.5 C 328.527,54.3379 330.527,54.5045 332.5,55C 341.658,66.1697 352.991,74.1697 366.5,79C 368.473,79.4955 370.473,79.6621 372.5,79.5C 371.742,84.0162 369.076,86.3496 364.5,86.5C 355.201,84.393 346.868,80.2263 339.5,74C 335,69.5 330.5,65 326,60.5C 325.322,58.4024 325.489,56.4024 326.5,54.5 Z"/></g>
<g><path style="opacity:1" fill="#4c2b2a" d="M 413.5,54.5 C 412.185,57.4121 411.018,60.4121 410,63.5C 406.425,68.7996 402.258,73.6329 397.5,78C 396.552,78.4828 395.552,78.6495 394.5,78.5C 394.509,80.3084 394.009,81.9751 393,83.5C 389.333,88.5 385,92.8333 380,96.5C 366.474,114.033 351.474,130.367 335,145.5C 319.202,164.965 301.702,182.799 282.5,199C 239.888,233.658 194.221,263.325 145.5,288C 144.663,289.011 144.33,290.178 144.5,291.5C 141.276,291.203 138.276,291.87 135.5,293.5C 134.614,294.325 134.281,295.325 134.5,296.5C 130.276,297.522 126.609,299.689 123.5,303C 109.2,311.152 94.8669,319.319 80.5,327.5C 76.0026,329.333 71.336,330.333 66.5,330.5C 108.924,305.929 151.257,281.096 193.5,256C 230.366,234.139 264.699,208.806 296.5,180C 335.877,141.3 373.044,100.8 408,58.5C 409.451,56.5359 411.284,55.2026 413.5,54.5 Z"/></g>
<g><path style="opacity:1" fill="#502b2b" d="M 278.5,92.5 C 280.527,92.3379 282.527,92.5045 284.5,93C 293.676,102.851 304.01,111.184 315.5,118C 318.5,119 321.5,120 324.5,121C 325.591,123.064 325.758,125.231 325,127.5C 324.107,128.081 323.107,128.415 322,128.5C 313.658,126.248 305.824,122.748 298.5,118C 291.364,111.865 284.531,105.365 278,98.5C 277.322,96.4024 277.489,94.4024 278.5,92.5 Z"/></g>
<g><path style="opacity:1" fill="#502b2b" d="M 235.5,126.5 C 237.199,126.34 238.866,126.506 240.5,127C 249.581,136.077 257.914,145.743 265.5,156C 269.437,157.644 273.27,159.477 277,161.5C 278.261,167.08 276.094,168.913 270.5,167C 266.462,166.101 262.795,164.434 259.5,162C 251.688,152.22 243.522,142.72 235,133.5C 234.297,131.071 234.463,128.738 235.5,126.5 Z"/></g>
<g><path style="opacity:1" fill="#502b2b" d="M 178.5,167.5 C 180.467,167.261 182.301,167.594 184,168.5C 191.556,182.38 201.556,194.046 214,203.5C 215.913,209.094 214.08,211.261 208.5,210C 206.833,209 205.167,208 203.5,207C 193.093,197.601 184.593,186.768 178,174.5C 177.297,172.071 177.463,169.738 178.5,167.5 Z"/></g>
<g><path style="opacity:1" fill="#4f2b2b" d="M 117.5,203.5 C 119.467,203.261 121.301,203.594 123,204.5C 126.903,213.738 132.403,221.904 139.5,229C 146.116,233.556 152.949,237.723 160,241.5C 161.261,247.08 159.094,248.913 153.5,247C 144.603,243.435 136.77,238.269 130,231.5C 125.42,225.34 121.086,219.007 117,212.5C 116.264,209.408 116.431,206.408 117.5,203.5 Z"/></g>
<g><path style="opacity:1" fill="#4f2b2b" d="M 57.5,252.5 C 59.4672,252.261 61.3005,252.594 63,253.5C 63.758,257.685 65.0913,261.685 67,265.5C 72.533,270.698 77.6996,276.198 82.5,282C 84.4682,283.544 86.6349,284.711 89,285.5C 89.7429,287.441 89.5762,289.274 88.5,291C 84.4672,292.04 80.8005,291.374 77.5,289C 72.0317,282.63 66.1984,276.464 60,270.5C 56.7169,264.77 55.8835,258.77 57.5,252.5 Z"/></g>
</svg>
